<?xml version="1.0" standalone="no"?>
<svg xmlns:xlink="http://www.w3.org/1999/xlink" id="wave" style="transform:rotate(0deg); transition: 0.3s" viewBox="0 0 1440 490" version="1.1" xmlns="http://www.w3.org/2000/svg"><defs><linearGradient id="sw-gradient-0" x1="0" x2="0" y1="1" y2="0"><stop stop-color="rgba(6, 118, 230, 1)" offset="0%"/><stop stop-color="rgba(26, 26, 26, 1)" offset="100%"/></linearGradient></defs><path style="transform:translate(0, 0px); opacity:1" fill="url(#sw-gradient-0)" d="M0,392L26.7,375.7C53.3,359,107,327,160,294C213.3,261,267,229,320,196C373.3,163,427,131,480,155.2C533.3,180,587,261,640,302.2C693.3,343,747,343,800,318.5C853.3,294,907,245,960,228.7C1013.3,212,1067,229,1120,261.3C1173.3,294,1227,343,1280,310.3C1333.3,278,1387,163,1440,114.3C1493.3,65,1547,82,1600,147C1653.3,212,1707,327,1760,383.8C1813.3,441,1867,441,1920,375.7C1973.3,310,2027,180,2080,171.5C2133.3,163,2187,278,2240,310.3C2293.3,343,2347,294,2400,228.7C2453.3,163,2507,82,2560,57.2C2613.3,33,2667,65,2720,73.5C2773.3,82,2827,65,2880,106.2C2933.3,147,2987,245,3040,285.8C3093.3,327,3147,310,3200,261.3C3253.3,212,3307,131,3360,122.5C3413.3,114,3467,180,3520,171.5C3573.3,163,3627,82,3680,98C3733.3,114,3787,229,3813,285.8L3840,343L3840,490L3813.3,490C3786.7,490,3733,490,3680,490C3626.7,490,3573,490,3520,490C3466.7,490,3413,490,3360,490C3306.7,490,3253,490,3200,490C3146.7,490,3093,490,3040,490C2986.7,490,2933,490,2880,490C2826.7,490,2773,490,2720,490C2666.7,490,2613,490,2560,490C2506.7,490,2453,490,2400,490C2346.7,490,2293,490,2240,490C2186.7,490,2133,490,2080,490C2026.7,490,1973,490,1920,490C1866.7,490,1813,490,1760,490C1706.7,490,1653,490,1600,490C1546.7,490,1493,490,1440,490C1386.7,490,1333,490,1280,490C1226.7,490,1173,490,1120,490C1066.7,490,1013,490,960,490C906.7,490,853,490,800,490C746.7,490,693,490,640,490C586.7,490,533,490,480,490C426.7,490,373,490,320,490C266.7,490,213,490,160,490C106.7,490,53,490,27,490L0,490Z"/></svg>